<?xml version="1.0" encoding="utf-8"?>
<!-- Generator: Adobe Illustrator 24.3.0, SVG Export Plug-In . SVG Version: 6.00 Build 0)  -->
<svg version="1.1" id="Layer_1" xmlns="http://www.w3.org/2000/svg" xmlns:xlink="http://www.w3.org/1999/xlink" x="0px" y="0px"
	 viewBox="0 0 100 100" style="enable-background:new 0 0 100 100;" xml:space="preserve">
<g fill="rgba(55,172,180,1)">
	<path d="M34.1,20.8h31.8c0.3,0,0.6-0.3,0.6-0.6v-6.6c0-0.3-0.3-0.6-0.6-0.6h-7.6c0.5-1.1,0.7-2.3,0.7-3.5c0-5-4-9-9-9c-5,0-9,4-9,9
		c0,1.2,0.3,2.4,0.7,3.5h-7.6c-0.3,0-0.6,0.3-0.6,0.6v6.6C33.5,20.5,33.8,20.8,34.1,20.8z M43,9.5c0-3.9,3.1-7,7-7c3.9,0,7,3.1,7,7
		c0,1.3-0.3,2.5-0.9,3.5c-1.2,2.1-3.5,3.5-6.1,3.5c-2.6,0-4.8-1.4-6.1-3.5C43.3,12,43,10.8,43,9.5z"/>
	<path d="M44,70c0.1,0.1,0.3,0.2,0.5,0.2c0.2,0,0.3-0.1,0.5-0.2l21.9-21.8c0.3-0.3,0.3-0.7,0-0.9L65.5,46c-0.2-0.2-0.4-0.2-0.5-0.2
		c-0.2,0-0.3,0.1-0.5,0.2L44.5,65.9l-9.1-9.2c-0.1-0.1-0.3-0.2-0.5-0.2c-0.2,0-0.3,0.1-0.5,0.2l-1.4,1.4c-0.1,0.1-0.2,0.3-0.2,0.5
		c0,0.2,0.1,0.3,0.2,0.5L44,70z"/>
	<path d="M78.6,13h-7.7v2h7.7c3.3,0,5.9,2.7,5.9,5.9v70.1c0,3.3-2.7,5.9-5.9,5.9H21.4c-3.3,0-5.9-2.7-5.9-5.9V20.9
		c0-3.3,2.7-5.9,5.9-5.9h8v-2h-8c-4.4,0-7.9,3.6-7.9,7.9v70.1c0,4.4,3.6,7.9,7.9,7.9h57.1c4.4,0,7.9-3.6,7.9-7.9V20.9
		C86.5,16.6,82.9,13,78.6,13z"/>
</g>
</svg>
